<svg width="48" height="48" viewBox="0 0 48 48" fill="none" xmlns="http://www.w3.org/2000/svg">
<path d="M17.3333 40.4211C16.5422 40.4211 15.7688 40.6433 15.1111 41.0597C14.4533 41.4761 13.9406 42.0679 13.6378 42.7604C13.3351 43.4528 13.2559 44.2147 13.4102 44.9498C13.5645 45.6849 13.9455 46.3601 14.5049 46.8901C15.0643 47.4201 15.777 47.781 16.553 47.9272C17.3289 48.0734 18.1332 47.9984 18.8641 47.7115C19.595 47.4247 20.2197 46.939 20.6592 46.3158C21.0987 45.6927 21.3333 44.96 21.3333 44.2105C21.3333 43.2055 20.9119 42.2416 20.1618 41.531C19.4116 40.8203 18.3942 40.4211 17.3333 40.4211ZM45.3333 32.8421H13.3333C12.6261 32.8421 11.9478 32.5759 11.4477 32.1022C10.9476 31.6284 10.6667 30.9858 10.6667 30.3158C10.6667 29.6458 10.9476 29.0032 11.4477 28.5294C11.9478 28.0556 12.6261 27.7895 13.3333 27.7895H35.976C37.7133 27.7843 39.4021 27.2458 40.7891 26.2547C42.1761 25.2636 43.1867 23.8733 43.6693 22.2922L47.896 8.27116C48.009 7.8954 48.0285 7.49993 47.9529 7.11584C47.8773 6.73175 47.7087 6.36951 47.4603 6.05759C47.2119 5.74567 46.8906 5.49257 46.5215 5.3182C46.1525 5.14382 45.7458 5.05292 45.3333 5.05263H12.64C12.0875 3.57983 11.0689 2.30433 9.7231 1.40011C8.37732 0.495888 6.76987 0.00695661 5.12 0H2.66667C1.95942 0 1.28115 0.266165 0.781048 0.739941C0.280951 1.21372 0 1.8563 0 2.52632C0 3.19634 0.280951 3.83891 0.781048 4.31269C1.28115 4.78647 1.95942 5.05263 2.66667 5.05263H5.12267C5.70174 5.05438 6.26464 5.23378 6.72709 5.56395C7.18954 5.89413 7.52667 6.35733 7.688 6.88421L8.10133 8.26105V8.27368L12.4773 22.7798C10.4404 22.9861 8.5647 23.9248 7.23667 25.4024C5.90864 26.88 5.22951 28.7839 5.33926 30.7218C5.44901 32.6597 6.33927 34.4839 7.82656 35.8184C9.31385 37.1529 11.2848 37.8961 13.3333 37.8947H45.3333C46.0406 37.8947 46.7189 37.6286 47.219 37.1548C47.7191 36.681 48 36.0384 48 35.3684C48 34.6984 47.7191 34.0558 47.219 33.582C46.7189 33.1083 46.0406 32.8421 45.3333 32.8421ZM41.7973 10.1053L38.544 20.9027C38.383 21.4305 38.0457 21.8946 37.5827 22.2253C37.1196 22.556 36.5559 22.7355 35.976 22.7368H18.0107L17.3307 20.4834L14.2027 10.1053H41.7973ZM38.6667 40.4211C37.8755 40.4211 37.1022 40.6433 36.4444 41.0597C35.7866 41.4761 35.2739 42.0679 34.9711 42.7604C34.6684 43.4528 34.5892 44.2147 34.7435 44.9498C34.8979 45.6849 35.2788 46.3601 35.8382 46.8901C36.3977 47.4201 37.1104 47.781 37.8863 47.9272C38.6622 48.0734 39.4665 47.9984 40.1974 47.7115C40.9283 47.4247 41.553 46.939 41.9925 46.3158C42.4321 45.6927 42.6667 44.96 42.6667 44.2105C42.6667 43.2055 42.2452 42.2416 41.4951 41.531C40.7449 40.8203 39.7275 40.4211 38.6667 40.4211Z" fill="#FF5C00"/>
<path d="M17.3333 40.4211C16.5422 40.4211 15.7688 40.6433 15.1111 41.0597C14.4533 41.4761 13.9406 42.0679 13.6378 42.7604C13.3351 43.4528 13.2559 44.2147 13.4102 44.9498C13.5645 45.6849 13.9455 46.3601 14.5049 46.8901C15.0643 47.4201 15.777 47.781 16.553 47.9272C17.3289 48.0734 18.1332 47.9984 18.8641 47.7115C19.595 47.4247 20.2197 46.939 20.6592 46.3158C21.0987 45.6927 21.3333 44.96 21.3333 44.2105C21.3333 43.2055 20.9119 42.2416 20.1618 41.531C19.4116 40.8203 18.3942 40.4211 17.3333 40.4211ZM45.3333 32.8421H13.3333C12.6261 32.8421 11.9478 32.5759 11.4477 32.1022C10.9476 31.6284 10.6667 30.9858 10.6667 30.3158C10.6667 29.6458 10.9476 29.0032 11.4477 28.5294C11.9478 28.0556 12.6261 27.7895 13.3333 27.7895H35.976C37.7133 27.7843 39.4021 27.2458 40.7891 26.2547C42.1761 25.2636 43.1867 23.8733 43.6693 22.2922L47.896 8.27116C48.009 7.8954 48.0285 7.49993 47.9529 7.11584C47.8773 6.73175 47.7087 6.36951 47.4603 6.05759C47.2119 5.74567 46.8906 5.49257 46.5215 5.3182C46.1525 5.14382 45.7458 5.05292 45.3333 5.05263H12.64C12.0875 3.57983 11.0689 2.30433 9.7231 1.40011C8.37732 0.495888 6.76987 0.00695661 5.12 0H2.66667C1.95942 0 1.28115 0.266165 0.781048 0.739941C0.280951 1.21372 0 1.8563 0 2.52632C0 3.19634 0.280951 3.83891 0.781048 4.31269C1.28115 4.78647 1.95942 5.05263 2.66667 5.05263H5.12267C5.70174 5.05438 6.26464 5.23378 6.72709 5.56395C7.18954 5.89413 7.52667 6.35733 7.688 6.88421L8.10133 8.26105V8.27368L12.4773 22.7798C10.4404 22.9861 8.5647 23.9248 7.23667 25.4024C5.90864 26.88 5.22951 28.7839 5.33926 30.7218C5.44901 32.6597 6.33927 34.4839 7.82656 35.8184C9.31385 37.1529 11.2848 37.8961 13.3333 37.8947H45.3333C46.0406 37.8947 46.7189 37.6286 47.219 37.1548C47.7191 36.681 48 36.0384 48 35.3684C48 34.6984 47.7191 34.0558 47.219 33.582C46.7189 33.1083 46.0406 32.8421 45.3333 32.8421ZM41.7973 10.1053L38.544 20.9027C38.383 21.4305 38.0457 21.8946 37.5827 22.2253C37.1196 22.556 36.5559 22.7355 35.976 22.7368H18.0107L17.3307 20.4834L14.2027 10.1053H41.7973ZM38.6667 40.4211C37.8755 40.4211 37.1022 40.6433 36.4444 41.0597C35.7866 41.4761 35.2739 42.0679 34.9711 42.7604C34.6684 43.4528 34.5892 44.2147 34.7435 44.9498C34.8979 45.6849 35.2788 46.3601 35.8382 46.8901C36.3977 47.4201 37.1104 47.781 37.8863 47.9272C38.6622 48.0734 39.4665 47.9984 40.1974 47.7115C40.9283 47.4247 41.553 46.939 41.9925 46.3158C42.4321 45.6927 42.6667 44.96 42.6667 44.2105C42.6667 43.2055 42.2452 42.2416 41.4951 41.531C40.7449 40.8203 39.7275 40.4211 38.6667 40.4211Z" fill="url(#paint0_linear_814_17)"/>
<defs>
<linearGradient id="paint0_linear_814_17" x1="48" y1="0" x2="4.03496" y2="50.039" gradientUnits="userSpaceOnUse">
<stop stop-color="#FF0000"/>
<stop offset="1" stop-color="white" stop-opacity="0"/>
</linearGradient>
</defs>
</svg>
