<svg width="48" height="65" viewBox="0 0 48 65" fill="none" xmlns="http://www.w3.org/2000/svg">
<path d="M15.6681 33.7059L6.95736 48.3614L19.8028 40.7362L21.7718 41.8404L21.4262 56.4758L30.1368 41.8203L33.478 43.6941L21.2555 64.2583L17.6757 62.2506L18.1363 45.7487L3.65435 54.3871L0.0744629 52.3794L12.297 31.8152L15.6681 33.7059Z" fill="#FF5C00"/>
<path d="M15.6681 33.7059L6.95736 48.3614L19.8028 40.7362L21.7718 41.8404L21.4262 56.4758L30.1368 41.8203L33.478 43.6941L21.2555 64.2583L17.6757 62.2506L18.1363 45.7487L3.65435 54.3871L0.0744629 52.3794L12.297 31.8152L15.6681 33.7059Z" fill="url(#paint0_linear_814_24)"/>
<path d="M20.9457 36.6507L19.2415 39.518L33.7698 47.6659L45.9924 27.1019L31.7325 19.1045L30.0282 21.972L40.9468 28.0954L37.4695 33.9461L28.0126 28.6424L26.4117 31.3359L35.8685 36.6397L32.133 42.9247L20.9457 36.6507Z" fill="#FF5C00"/>
<path d="M20.9457 36.6507L19.2415 39.518L33.7698 47.6659L45.9924 27.1019L31.7325 19.1045L30.0282 21.972L40.9468 28.0954L37.4695 33.9461L28.0126 28.6424L26.4117 31.3359L35.8685 36.6397L32.133 42.9247L20.9457 36.6507Z" fill="url(#paint1_linear_814_24)"/>
<path d="M39.9046 2.16631C41.3962 3.00284 42.5765 4.05094 43.4453 5.31056C44.3227 6.60072 44.8153 7.95819 44.923 9.3831C45.0506 10.8193 44.7184 12.2034 43.9265 13.5358C43.2379 14.6943 42.3099 15.5641 41.1424 16.1452C39.9636 16.7454 38.7619 17.0498 37.537 17.0581L46.6658 22.1777L44.7722 25.3637L26.6937 15.2248C26.3158 15.0129 26.0072 14.9299 25.7677 14.9759C25.5283 15.0218 25.3068 15.1936 25.1032 15.4914L22.478 14.0191C22.7344 13.3647 22.96 12.8734 23.1551 12.5452C23.511 11.9466 23.9941 11.5353 24.6046 11.3113C25.2036 11.1066 25.7573 11.134 26.2661 11.3936L27.4467 12.017C26.7966 10.8801 26.4857 9.66307 26.5143 8.36599C26.5625 7.08007 26.9024 5.90615 27.5334 4.84414C28.1532 3.80147 28.9359 2.95313 29.8815 2.29915C30.8156 1.66447 31.8555 1.23081 33.0015 0.998149C34.1361 0.784808 35.2995 0.767968 36.4922 0.947638C37.6733 1.14661 38.8107 1.55283 39.9046 2.16631ZM30.4966 13.1096L34.5836 15.4018C35.3463 15.5462 36.1198 15.5166 36.9039 15.3127C37.6963 15.1394 38.4197 14.837 39.0737 14.4057C39.7164 13.9937 40.2098 13.4981 40.5541 12.9188C40.9558 12.243 41.1739 11.5415 41.2083 10.8142C41.2315 10.1062 41.1149 9.41006 40.8586 8.72575C40.591 8.06073 40.202 7.44352 39.6918 6.87422C39.1816 6.30493 38.5785 5.82502 37.8824 5.43472C37.1665 5.03316 36.4215 4.7698 35.6473 4.64452C34.8929 4.53051 34.141 4.54645 33.3914 4.69233C32.6501 4.86877 31.9738 5.15886 31.3625 5.56266C30.7596 5.99698 30.2574 6.55201 29.8558 7.22786C29.6033 7.65259 29.4303 8.12203 29.3369 8.63604C29.2321 9.16945 29.2041 9.7072 29.2531 10.2495C29.2904 10.8112 29.4178 11.3332 29.635 11.8154C29.8407 12.3169 30.128 12.7484 30.4966 13.1096Z" fill="#FF5C00"/>
<path d="M39.9046 2.16631C41.3962 3.00284 42.5765 4.05094 43.4453 5.31056C44.3227 6.60072 44.8153 7.95819 44.923 9.3831C45.0506 10.8193 44.7184 12.2034 43.9265 13.5358C43.2379 14.6943 42.3099 15.5641 41.1424 16.1452C39.9636 16.7454 38.7619 17.0498 37.537 17.0581L46.6658 22.1777L44.7722 25.3637L26.6937 15.2248C26.3158 15.0129 26.0072 14.9299 25.7677 14.9759C25.5283 15.0218 25.3068 15.1936 25.1032 15.4914L22.478 14.0191C22.7344 13.3647 22.96 12.8734 23.1551 12.5452C23.511 11.9466 23.9941 11.5353 24.6046 11.3113C25.2036 11.1066 25.7573 11.134 26.2661 11.3936L27.4467 12.017C26.7966 10.8801 26.4857 9.66307 26.5143 8.36599C26.5625 7.08007 26.9024 5.90615 27.5334 4.84414C28.1532 3.80147 28.9359 2.95313 29.8815 2.29915C30.8156 1.66447 31.8555 1.23081 33.0015 0.998149C34.1361 0.784808 35.2995 0.767968 36.4922 0.947638C37.6733 1.14661 38.8107 1.55283 39.9046 2.16631ZM30.4966 13.1096L34.5836 15.4018C35.3463 15.5462 36.1198 15.5166 36.9039 15.3127C37.6963 15.1394 38.4197 14.837 39.0737 14.4057C39.7164 13.9937 40.2098 13.4981 40.5541 12.9188C40.9558 12.243 41.1739 11.5415 41.2083 10.8142C41.2315 10.1062 41.1149 9.41006 40.8586 8.72575C40.591 8.06073 40.202 7.44352 39.6918 6.87422C39.1816 6.30493 38.5785 5.82502 37.8824 5.43472C37.1665 5.03316 36.4215 4.7698 35.6473 4.64452C34.8929 4.53051 34.141 4.54645 33.3914 4.69233C32.6501 4.86877 31.9738 5.15886 31.3625 5.56266C30.7596 5.99698 30.2574 6.55201 29.8558 7.22786C29.6033 7.65259 29.4303 8.12203 29.3369 8.63604C29.2321 9.16945 29.2041 9.7072 29.2531 10.2495C29.2904 10.8112 29.4178 11.3332 29.635 11.8154C29.8407 12.3169 30.128 12.7484 30.4966 13.1096Z" fill="url(#paint2_linear_814_24)"/>
<path d="M24.9352 38.8882L23.2311 41.7556L8.70264 33.6077L20.9251 13.0436L35.1851 21.0409L33.4808 23.9083L22.5621 17.7848L19.0846 23.6355L28.5416 28.9391L26.9406 31.6328L17.4837 26.3291L13.7481 32.6142L24.9352 38.8882Z" fill="#FF5C00"/>
<path d="M24.9352 38.8882L23.2311 41.7556L8.70264 33.6077L20.9251 13.0436L35.1851 21.0409L33.4808 23.9083L22.5621 17.7848L19.0846 23.6355L28.5416 28.9391L26.9406 31.6328L17.4837 26.3291L13.7481 32.6142L24.9352 38.8882Z" fill="url(#paint3_linear_814_24)"/>
<defs>
<linearGradient id="paint0_linear_814_24" x1="-13.9501" y1="73.2639" x2="64.1146" y2="-7.10107" gradientUnits="userSpaceOnUse">
<stop stop-color="#FF0000"/>
<stop offset="1" stop-color="white" stop-opacity="0"/>
</linearGradient>
<linearGradient id="paint1_linear_814_24" x1="66.4488" y1="-4.83386" x2="-11.616" y2="75.5311" gradientUnits="userSpaceOnUse">
<stop stop-color="#FF0000"/>
<stop offset="1" stop-color="white" stop-opacity="0"/>
</linearGradient>
<linearGradient id="paint2_linear_814_24" x1="66.4489" y1="-4.83387" x2="-11.616" y2="75.5312" gradientUnits="userSpaceOnUse">
<stop stop-color="#FF0000"/>
<stop offset="1" stop-color="white" stop-opacity="0"/>
</linearGradient>
<linearGradient id="paint3_linear_814_24" x1="66.4486" y1="-4.83386" x2="-11.6162" y2="75.5311" gradientUnits="userSpaceOnUse">
<stop stop-color="#FF0000"/>
<stop offset="1" stop-color="white" stop-opacity="0"/>
</linearGradient>
</defs>
</svg>
