<svg width="48" height="48" viewBox="0 0 48 48" fill="none" xmlns="http://www.w3.org/2000/svg">
<path fill-rule="evenodd" clip-rule="evenodd" d="M32.7272 17.4545C32.7272 19.7692 31.8078 21.989 30.1711 23.6257C28.5344 25.2623 26.3146 26.1818 24 26.1818C21.6854 26.1818 19.4655 25.2623 17.8289 23.6257C16.1922 21.989 15.2727 19.7692 15.2727 17.4545C15.2727 15.1399 16.1922 12.9201 17.8289 11.2834C19.4655 9.64674 21.6854 8.72726 24 8.72726C26.3146 8.72726 28.5344 9.64674 30.1711 11.2834C31.8078 12.9201 32.7272 15.1399 32.7272 17.4545ZM28.3636 17.4545C28.3636 18.6118 27.9039 19.7218 27.0855 20.5401C26.2672 21.3584 25.1573 21.8182 24 21.8182C22.8427 21.8182 21.7328 21.3584 20.9144 20.5401C20.0961 19.7218 19.6363 18.6118 19.6363 17.4545C19.6363 16.2972 20.0961 15.1873 20.9144 14.369C21.7328 13.5506 22.8427 13.0909 24 13.0909C25.1573 13.0909 26.2672 13.5506 27.0855 14.369C27.9039 15.1873 28.3636 16.2972 28.3636 17.4545Z" fill="#FF5C00"/>
<path fill-rule="evenodd" clip-rule="evenodd" d="M32.7272 17.4545C32.7272 19.7692 31.8078 21.989 30.1711 23.6257C28.5344 25.2623 26.3146 26.1818 24 26.1818C21.6854 26.1818 19.4655 25.2623 17.8289 23.6257C16.1922 21.989 15.2727 19.7692 15.2727 17.4545C15.2727 15.1399 16.1922 12.9201 17.8289 11.2834C19.4655 9.64674 21.6854 8.72726 24 8.72726C26.3146 8.72726 28.5344 9.64674 30.1711 11.2834C31.8078 12.9201 32.7272 15.1399 32.7272 17.4545ZM28.3636 17.4545C28.3636 18.6118 27.9039 19.7218 27.0855 20.5401C26.2672 21.3584 25.1573 21.8182 24 21.8182C22.8427 21.8182 21.7328 21.3584 20.9144 20.5401C20.0961 19.7218 19.6363 18.6118 19.6363 17.4545C19.6363 16.2972 20.0961 15.1873 20.9144 14.369C21.7328 13.5506 22.8427 13.0909 24 13.0909C25.1573 13.0909 26.2672 13.5506 27.0855 14.369C27.9039 15.1873 28.3636 16.2972 28.3636 17.4545Z" fill="url(#paint0_linear_814_18)"/>
<path fill-rule="evenodd" clip-rule="evenodd" d="M24 0C10.7455 0 0 10.7455 0 24C0 37.2545 10.7455 48 24 48C37.2545 48 48 37.2545 48 24C48 10.7455 37.2545 0 24 0ZM4.36364 24C4.36364 28.56 5.91927 32.7578 8.52655 36.0916C10.3576 33.6871 12.7198 31.7384 15.4286 30.3978C18.1374 29.0572 21.1194 28.361 24.1418 28.3636C27.1251 28.3608 30.0696 29.039 32.7511 30.3464C35.4326 31.6539 37.7803 33.5562 39.6153 35.9084C41.5057 33.429 42.7786 30.535 43.3285 27.466C43.8784 24.397 43.6897 21.2412 42.7778 18.2596C41.8659 15.278 40.2572 12.5565 38.0847 10.3201C35.9122 8.0837 33.2384 6.39678 30.2845 5.39893C27.3306 4.40107 24.1815 4.12096 21.0979 4.58176C18.0142 5.04256 15.0846 6.23104 12.5515 8.04884C10.0184 9.86665 7.9545 12.2615 6.53068 15.0353C5.10687 17.8091 4.36403 20.8821 4.36364 24ZM24 43.6364C19.4923 43.6431 15.1206 42.0924 11.6247 39.2465C13.0318 37.2322 14.9047 35.5875 17.0841 34.4524C19.2634 33.3174 21.6846 32.7255 24.1418 32.7273C26.5684 32.7253 28.9603 33.3023 31.1191 34.4104C33.2779 35.5184 35.1412 37.1255 36.5542 39.0982C33.0312 42.0364 28.5875 43.6428 24 43.6364Z" fill="#FF5C00"/>
<path fill-rule="evenodd" clip-rule="evenodd" d="M24 0C10.7455 0 0 10.7455 0 24C0 37.2545 10.7455 48 24 48C37.2545 48 48 37.2545 48 24C48 10.7455 37.2545 0 24 0ZM4.36364 24C4.36364 28.56 5.91927 32.7578 8.52655 36.0916C10.3576 33.6871 12.7198 31.7384 15.4286 30.3978C18.1374 29.0572 21.1194 28.361 24.1418 28.3636C27.1251 28.3608 30.0696 29.039 32.7511 30.3464C35.4326 31.6539 37.7803 33.5562 39.6153 35.9084C41.5057 33.429 42.7786 30.535 43.3285 27.466C43.8784 24.397 43.6897 21.2412 42.7778 18.2596C41.8659 15.278 40.2572 12.5565 38.0847 10.3201C35.9122 8.0837 33.2384 6.39678 30.2845 5.39893C27.3306 4.40107 24.1815 4.12096 21.0979 4.58176C18.0142 5.04256 15.0846 6.23104 12.5515 8.04884C10.0184 9.86665 7.9545 12.2615 6.53068 15.0353C5.10687 17.8091 4.36403 20.8821 4.36364 24ZM24 43.6364C19.4923 43.6431 15.1206 42.0924 11.6247 39.2465C13.0318 37.2322 14.9047 35.5875 17.0841 34.4524C19.2634 33.3174 21.6846 32.7255 24.1418 32.7273C26.5684 32.7253 28.9603 33.3023 31.1191 34.4104C33.2779 35.5184 35.1412 37.1255 36.5542 39.0982C33.0312 42.0364 28.5875 43.6428 24 43.6364Z" fill="url(#paint1_linear_814_18)"/>
<path fill-rule="evenodd" clip-rule="evenodd" d="M24 0C10.7455 0 0 10.7455 0 24C0 37.2545 10.7455 48 24 48C37.2545 48 48 37.2545 48 24C48 10.7455 37.2545 0 24 0ZM4.36364 24C4.36364 28.56 5.91927 32.7578 8.52655 36.0916C10.3576 33.6871 12.7198 31.7384 15.4286 30.3978C18.1374 29.0572 21.1194 28.361 24.1418 28.3636C27.1251 28.3608 30.0696 29.039 32.7511 30.3464C35.4326 31.6539 37.7803 33.5562 39.6153 35.9084C41.5057 33.429 42.7786 30.535 43.3285 27.466C43.8784 24.397 43.6897 21.2412 42.7778 18.2596C41.8659 15.278 40.2572 12.5565 38.0847 10.3201C35.9122 8.0837 33.2384 6.39678 30.2845 5.39893C27.3306 4.40107 24.1815 4.12096 21.0979 4.58176C18.0142 5.04256 15.0846 6.23104 12.5515 8.04884C10.0184 9.86665 7.9545 12.2615 6.53068 15.0353C5.10687 17.8091 4.36403 20.8821 4.36364 24ZM24 43.6364C19.4923 43.6431 15.1206 42.0924 11.6247 39.2465C13.0318 37.2322 14.9047 35.5875 17.0841 34.4524C19.2634 33.3174 21.6846 32.7255 24.1418 32.7273C26.5684 32.7253 28.9603 33.3023 31.1191 34.4104C33.2779 35.5184 35.1412 37.1255 36.5542 39.0982C33.0312 42.0364 28.5875 43.6428 24 43.6364Z" fill="#FF5C00"/>
<path fill-rule="evenodd" clip-rule="evenodd" d="M24 0C10.7455 0 0 10.7455 0 24C0 37.2545 10.7455 48 24 48C37.2545 48 48 37.2545 48 24C48 10.7455 37.2545 0 24 0ZM4.36364 24C4.36364 28.56 5.91927 32.7578 8.52655 36.0916C10.3576 33.6871 12.7198 31.7384 15.4286 30.3978C18.1374 29.0572 21.1194 28.361 24.1418 28.3636C27.1251 28.3608 30.0696 29.039 32.7511 30.3464C35.4326 31.6539 37.7803 33.5562 39.6153 35.9084C41.5057 33.429 42.7786 30.535 43.3285 27.466C43.8784 24.397 43.6897 21.2412 42.7778 18.2596C41.8659 15.278 40.2572 12.5565 38.0847 10.3201C35.9122 8.0837 33.2384 6.39678 30.2845 5.39893C27.3306 4.40107 24.1815 4.12096 21.0979 4.58176C18.0142 5.04256 15.0846 6.23104 12.5515 8.04884C10.0184 9.86665 7.9545 12.2615 6.53068 15.0353C5.10687 17.8091 4.36403 20.8821 4.36364 24ZM24 43.6364C19.4923 43.6431 15.1206 42.0924 11.6247 39.2465C13.0318 37.2322 14.9047 35.5875 17.0841 34.4524C19.2634 33.3174 21.6846 32.7255 24.1418 32.7273C26.5684 32.7253 28.9603 33.3023 31.1191 34.4104C33.2779 35.5184 35.1412 37.1255 36.5542 39.0982C33.0312 42.0364 28.5875 43.6428 24 43.6364Z" fill="url(#paint2_linear_814_18)"/>
<defs>
<linearGradient id="paint0_linear_814_18" x1="47.8753" y1="-2.26107e-05" x2="-3.57838e-05" y2="47.8753" gradientUnits="userSpaceOnUse">
<stop stop-color="#FF0000"/>
<stop offset="1" stop-color="white" stop-opacity="0"/>
</linearGradient>
<linearGradient id="paint1_linear_814_18" x1="47.8753" y1="0" x2="0" y2="47.8753" gradientUnits="userSpaceOnUse">
<stop stop-color="#FF0000"/>
<stop offset="1" stop-color="white" stop-opacity="0"/>
</linearGradient>
<linearGradient id="paint2_linear_814_18" x1="47.8753" y1="0" x2="0" y2="47.8753" gradientUnits="userSpaceOnUse">
<stop stop-color="#FF0000"/>
<stop offset="1" stop-color="white" stop-opacity="0"/>
</linearGradient>
</defs>
</svg>
