<svg width="24" height="24" viewBox="0 0 24 24" fill="none" xmlns="http://www.w3.org/2000/svg">
<path d="M20.0389 17.0959C22.5905 14.7069 24.0004 11.9999 24.0004 11.9999C24.0004 11.9999 19.5004 3.34399 12.0004 3.34399C10.5599 3.34919 9.13552 3.66414 7.81543 4.26939L8.97043 5.48279C9.94162 5.11161 10.9669 4.92044 12.0004 4.9178C15.1804 4.9178 17.8189 6.75601 19.7524 8.78464C20.683 9.76621 21.5171 10.8434 22.2425 11.9999C22.1554 12.1369 22.0594 12.288 21.95 12.4532C21.4474 13.2086 20.7049 14.2158 19.7524 15.2152C19.5049 15.4749 19.2469 15.7314 18.9769 15.9801L20.0389 17.0959Z" fill="#1F1F1F"/>
<path d="M16.945 13.8508C17.2798 12.8685 17.3418 11.8067 17.1238 10.7888C16.9059 9.771 16.4169 8.83904 15.7138 8.10139C15.0107 7.36374 14.1226 6.85071 13.1524 6.62203C12.1823 6.39334 11.1703 6.45837 10.2341 6.80958L11.4685 8.10482C12.045 8.01825 12.6328 8.07373 13.1853 8.26687C13.7378 8.46 14.2398 8.78548 14.6515 9.21752C15.0634 9.64956 15.3735 10.1763 15.5577 10.7559C15.7417 11.3356 15.7946 11.9523 15.712 12.5572L16.945 13.8508ZM12.5306 15.8952L13.7635 17.1889C12.8273 17.5401 11.8153 17.605 10.8452 17.3764C9.87513 17.1477 8.98684 16.6347 8.28378 15.8971C7.58073 15.1594 7.09176 14.2274 6.87379 13.2096C6.65584 12.1917 6.71782 11.1299 7.05256 10.1476L8.28706 11.4429C8.20455 12.0477 8.25742 12.6643 8.4415 13.244C8.62557 13.8237 8.9358 14.3505 9.34757 14.7825C9.75935 15.2145 10.2613 15.54 10.8138 15.7331C11.3663 15.9263 11.9541 15.9818 12.5306 15.8952Z" fill="#1F1F1F"/>
<path d="M5.02499 8.01824C4.75499 8.27005 4.4955 8.525 4.248 8.78469C3.31747 9.76625 2.48328 10.8434 1.758 12L2.0505 12.4532C2.55299 13.2086 3.2955 14.2159 4.248 15.2153C6.1815 17.2439 8.8215 19.0821 12 19.0821C13.074 19.0821 14.085 18.8728 15.03 18.5156L16.185 19.7305C14.8649 20.3357 13.4406 20.6507 12 20.6559C4.5 20.6559 0 12 0 12C0 12 1.4085 9.29145 3.9615 6.90399L5.0235 8.01981L5.02499 8.01824ZM20.469 22L2.469 3.11426L3.531 2L21.531 20.8857L20.469 22Z" fill="#1F1F1F"/>
</svg>
