<svg width="24" height="24" viewBox="0 0 24 24" fill="none" xmlns="http://www.w3.org/2000/svg">
<path d="M15.75 12.25C15.75 13.2446 15.3549 14.1984 14.6516 14.9017C13.9484 15.6049 12.9946 16 12 16C11.0054 16 10.0516 15.6049 9.34835 14.9017C8.64509 14.1984 8.25 13.2446 8.25 12.25C8.25 11.2554 8.64509 10.3016 9.34835 9.59835C10.0516 8.89509 11.0054 8.5 12 8.5C12.9946 8.5 13.9484 8.89509 14.6516 9.59835C15.3549 10.3016 15.75 11.2554 15.75 12.25Z" fill="#1F1F1F"/>
<path d="M0 12.25C0 12.25 4.5 4 12 4C19.5 4 24 12.25 24 12.25C24 12.25 19.5 20.5 12 20.5C4.5 20.5 0 12.25 0 12.25ZM12 17.5C13.3924 17.5 14.7277 16.9468 15.7123 15.9623C16.6969 14.9778 17.25 13.6424 17.25 12.25C17.25 10.8576 16.6969 9.52226 15.7123 8.53769C14.7277 7.55312 13.3924 7 12 7C10.6076 7 9.27226 7.55312 8.28769 8.53769C7.30312 9.52226 6.75 10.8576 6.75 12.25C6.75 13.6424 7.30312 14.9778 8.28769 15.9623C9.27226 16.9468 10.6076 17.5 12 17.5Z" fill="#1F1F1F"/>
</svg>
